<svg width="166" height="56" viewBox="0 0 166 56" fill="none" xmlns="http://www.w3.org/2000/svg">
<g filter="url(#filter0_d_97_913)">
<g filter="url(#filter1_d_97_913)">
<rect x="4" width="158" height="48" rx="16" fill="#002F67"/>
<rect x="4.5" y="0.5" width="157" height="47" rx="15.5" stroke="black"/>
</g>
<path d="M51.3436 22.4375H48.855C48.8095 22.1155 48.7167 21.8295 48.5765 21.5795C48.4364 21.3258 48.2565 21.1098 48.0368 20.9318C47.8171 20.7538 47.5633 20.6174 47.2754 20.5227C46.9913 20.428 46.6826 20.3807 46.3493 20.3807C45.747 20.3807 45.2224 20.5303 44.7754 20.8295C44.3284 21.125 43.9819 21.5568 43.7356 22.125C43.4894 22.6894 43.3663 23.375 43.3663 24.1818C43.3663 25.0114 43.4894 25.7083 43.7356 26.2727C43.9856 26.8371 44.3341 27.2633 44.7811 27.5511C45.2281 27.839 45.7451 27.983 46.3322 27.983C46.6618 27.983 46.9667 27.9394 47.247 27.8523C47.5311 27.7652 47.783 27.6383 48.0027 27.4716C48.2224 27.3011 48.4042 27.0947 48.5481 26.8523C48.6959 26.6098 48.7981 26.3333 48.855 26.0227L51.3436 26.0341C51.2792 26.5682 51.1182 27.0833 50.8606 27.5795C50.6069 28.072 50.264 28.5133 49.8322 28.9034C49.4042 29.2898 48.8928 29.5966 48.2981 29.8239C47.7072 30.0473 47.0387 30.1591 46.2925 30.1591C45.2546 30.1591 44.3265 29.9242 43.5084 29.4545C42.694 28.9848 42.05 28.3049 41.5765 27.4148C41.1069 26.5246 40.872 25.447 40.872 24.1818C40.872 22.9129 41.1106 21.8333 41.5879 20.9432C42.0652 20.053 42.7129 19.375 43.5311 18.9091C44.3493 18.4394 45.2697 18.2045 46.2925 18.2045C46.9667 18.2045 47.5917 18.2992 48.1675 18.4886C48.747 18.678 49.2603 18.9545 49.7072 19.3182C50.1542 19.678 50.5178 20.1193 50.7981 20.642C51.0822 21.1648 51.264 21.7633 51.3436 22.4375ZM57.0055 30.1705C56.123 30.1705 55.3597 29.983 54.7158 29.608C54.0756 29.2292 53.5813 28.7027 53.2328 28.0284C52.8843 27.3504 52.7101 26.5644 52.7101 25.6705C52.7101 24.7689 52.8843 23.9811 53.2328 23.3068C53.5813 22.6288 54.0756 22.1023 54.7158 21.7273C55.3597 21.3485 56.123 21.1591 57.0055 21.1591C57.8881 21.1591 58.6495 21.3485 59.2896 21.7273C59.9336 22.1023 60.4298 22.6288 60.7783 23.3068C61.1267 23.9811 61.301 24.7689 61.301 25.6705C61.301 26.5644 61.1267 27.3504 60.7783 28.0284C60.4298 28.7027 59.9336 29.2292 59.2896 29.608C58.6495 29.983 57.8881 30.1705 57.0055 30.1705ZM57.0169 28.2955C57.4184 28.2955 57.7536 28.1818 58.0226 27.9545C58.2915 27.7235 58.4942 27.4091 58.6305 27.0114C58.7707 26.6136 58.8408 26.161 58.8408 25.6534C58.8408 25.1458 58.7707 24.6932 58.6305 24.2955C58.4942 23.8977 58.2915 23.5833 58.0226 23.3523C57.7536 23.1212 57.4184 23.0057 57.0169 23.0057C56.6116 23.0057 56.2707 23.1212 55.9942 23.3523C55.7214 23.5833 55.515 23.8977 55.3748 24.2955C55.2385 24.6932 55.1703 25.1458 55.1703 25.6534C55.1703 26.161 55.2385 26.6136 55.3748 27.0114C55.515 27.4091 55.7214 27.7235 55.9942 27.9545C56.2707 28.1818 56.6116 28.2955 57.0169 28.2955ZM62.8748 30V21.2727H65.1817V22.8125H65.2839C65.4658 22.3011 65.7688 21.8977 66.193 21.6023C66.6173 21.3068 67.1248 21.1591 67.7158 21.1591C68.3142 21.1591 68.8237 21.3087 69.2442 21.608C69.6646 21.9034 69.9449 22.3049 70.0851 22.8125H70.176C70.354 22.3125 70.676 21.9129 71.1419 21.6136C71.6116 21.3106 72.1665 21.1591 72.8067 21.1591C73.6211 21.1591 74.282 21.4186 74.7896 21.9375C75.301 22.4527 75.5567 23.1837 75.5567 24.1307V30H73.1419V24.608C73.1419 24.1231 73.0131 23.7595 72.7555 23.517C72.498 23.2746 72.176 23.1534 71.7896 23.1534C71.3502 23.1534 71.0074 23.2936 70.7612 23.5739C70.515 23.8504 70.3919 24.2159 70.3919 24.6705V30H68.0453V24.5568C68.0453 24.1288 67.9222 23.7879 67.676 23.5341C67.4336 23.2803 67.1135 23.1534 66.7158 23.1534C66.4468 23.1534 66.2044 23.2216 65.9885 23.358C65.7764 23.4905 65.6078 23.678 65.4828 23.9205C65.3578 24.1591 65.2953 24.4394 65.2953 24.7614V30H62.8748ZM81.4459 30.1705C80.5481 30.1705 79.7754 29.9886 79.1277 29.625C78.4837 29.2576 77.9875 28.7386 77.639 28.0682C77.2906 27.3939 77.1163 26.5966 77.1163 25.6761C77.1163 24.7784 77.2906 23.9905 77.639 23.3125C77.9875 22.6345 78.4781 22.1061 79.1106 21.7273C79.747 21.3485 80.4932 21.1591 81.3493 21.1591C81.925 21.1591 82.461 21.2519 82.9572 21.4375C83.4572 21.6193 83.8928 21.8939 84.264 22.2614C84.639 22.6288 84.9307 23.0909 85.139 23.6477C85.3474 24.2008 85.4515 24.8485 85.4515 25.5909V26.2557H78.0822V24.7557H83.1731C83.1731 24.4072 83.0974 24.0985 82.9459 23.8295C82.7944 23.5606 82.5841 23.3504 82.3152 23.1989C82.05 23.0436 81.7413 22.9659 81.389 22.9659C81.0216 22.9659 80.6959 23.0511 80.4118 23.2216C80.1315 23.3883 79.9118 23.6136 79.7527 23.8977C79.5936 24.178 79.5122 24.4905 79.5084 24.8352V26.2614C79.5084 26.6932 79.5879 27.0663 79.747 27.3807C79.9099 27.6951 80.139 27.9375 80.4345 28.108C80.73 28.2784 81.0803 28.3636 81.4856 28.3636C81.7546 28.3636 82.0008 28.3258 82.2243 28.25C82.4478 28.1742 82.639 28.0606 82.7981 27.9091C82.9572 27.7576 83.0784 27.572 83.1618 27.3523L85.4004 27.5C85.2868 28.0379 85.0538 28.5076 84.7015 28.9091C84.3531 29.3068 83.9023 29.6174 83.3493 29.8409C82.8 30.0606 82.1656 30.1705 81.4459 30.1705ZM89.4515 24.9545V30H87.0311V21.2727H89.3379V22.8125H89.4402C89.6334 22.3049 89.9572 21.9034 90.4118 21.608C90.8663 21.3087 91.4175 21.1591 92.0652 21.1591C92.6712 21.1591 93.1997 21.2917 93.6504 21.5568C94.1012 21.822 94.4515 22.2008 94.7015 22.6932C94.9515 23.1818 95.0765 23.7652 95.0765 24.4432V30H92.6561V24.875C92.6599 24.3409 92.5235 23.9242 92.247 23.625C91.9705 23.322 91.5898 23.1705 91.105 23.1705C90.7792 23.1705 90.4913 23.2405 90.2413 23.3807C89.9951 23.5208 89.8019 23.7254 89.6618 23.9943C89.5254 24.2595 89.4553 24.5795 89.4515 24.9545ZM101.626 21.2727V23.0909H96.3706V21.2727H101.626ZM97.5638 19.1818H99.9842V27.3182C99.9842 27.5417 100.018 27.7159 100.086 27.8409C100.155 27.9621 100.249 28.0473 100.371 28.0966C100.496 28.1458 100.64 28.1705 100.802 28.1705C100.916 28.1705 101.03 28.161 101.143 28.142C101.257 28.1193 101.344 28.1023 101.405 28.0909L101.785 29.892C101.664 29.9299 101.494 29.9735 101.274 30.0227C101.054 30.0758 100.787 30.108 100.473 30.1193C99.8895 30.142 99.3782 30.0644 98.9388 29.8864C98.5032 29.7083 98.1641 29.4318 97.9217 29.0568C97.6793 28.6818 97.56 28.2083 97.5638 27.6364V19.1818ZM105.692 30.1648C105.135 30.1648 104.639 30.0682 104.203 29.875C103.767 29.678 103.423 29.3883 103.169 29.0057C102.919 28.6193 102.794 28.1383 102.794 27.5625C102.794 27.0777 102.883 26.6705 103.061 26.3409C103.239 26.0114 103.481 25.7462 103.788 25.5455C104.095 25.3447 104.444 25.1932 104.834 25.0909C105.228 24.9886 105.64 24.9167 106.072 24.875C106.58 24.822 106.989 24.7727 107.3 24.7273C107.61 24.678 107.836 24.6061 107.976 24.5114C108.116 24.4167 108.186 24.2765 108.186 24.0909V24.0568C108.186 23.697 108.072 23.4186 107.845 23.2216C107.622 23.0246 107.303 22.9261 106.89 22.9261C106.455 22.9261 106.108 23.0227 105.851 23.2159C105.593 23.4053 105.423 23.6439 105.339 23.9318L103.101 23.75C103.214 23.2197 103.438 22.7614 103.771 22.375C104.104 21.9848 104.534 21.6856 105.061 21.4773C105.591 21.2652 106.205 21.1591 106.902 21.1591C107.387 21.1591 107.851 21.2159 108.294 21.3295C108.741 21.4432 109.137 21.6193 109.481 21.858C109.83 22.0966 110.104 22.4034 110.305 22.7784C110.506 23.1496 110.606 23.5947 110.606 24.1136V30H108.311V28.7898H108.243C108.103 29.0625 107.915 29.303 107.68 29.5114C107.445 29.7159 107.163 29.8769 106.834 29.9943C106.504 30.108 106.123 30.1648 105.692 30.1648ZM106.385 28.4943C106.741 28.4943 107.055 28.4242 107.328 28.2841C107.601 28.1402 107.815 27.947 107.97 27.7045C108.125 27.4621 108.203 27.1875 108.203 26.8807V25.9545C108.127 26.0038 108.023 26.0492 107.89 26.0909C107.762 26.1288 107.616 26.1648 107.453 26.1989C107.29 26.2292 107.127 26.2576 106.964 26.2841C106.801 26.3068 106.654 26.3277 106.521 26.3466C106.237 26.3883 105.989 26.4545 105.777 26.5455C105.565 26.6364 105.4 26.7595 105.283 26.9148C105.165 27.0663 105.106 27.2557 105.106 27.483C105.106 27.8125 105.226 28.0644 105.464 28.2386C105.707 28.4091 106.014 28.4943 106.385 28.4943ZM112.484 30V21.2727H114.831V22.7955H114.922C115.081 22.2538 115.348 21.8447 115.723 21.5682C116.098 21.2879 116.53 21.1477 117.018 21.1477C117.14 21.1477 117.27 21.1553 117.41 21.1705C117.551 21.1856 117.674 21.2064 117.78 21.233V23.3807C117.666 23.3466 117.509 23.3163 117.308 23.2898C117.107 23.2633 116.924 23.25 116.757 23.25C116.401 23.25 116.083 23.3277 115.802 23.483C115.526 23.6345 115.306 23.8466 115.143 24.1193C114.984 24.392 114.905 24.7064 114.905 25.0625V30H112.484Z" fill="white"/>
</g>
<defs>
<filter id="filter0_d_97_913" x="0" y="0" width="166" height="56" filterUnits="userSpaceOnUse" color-interpolation-filters="sRGB">
<feFlood flood-opacity="0" result="BackgroundImageFix"/>
<feColorMatrix in="SourceAlpha" type="matrix" values="0 0 0 0 0 0 0 0 0 0 0 0 0 0 0 0 0 0 127 0" result="hardAlpha"/>
<feOffset dy="4"/>
<feGaussianBlur stdDeviation="2"/>
<feComposite in2="hardAlpha" operator="out"/>
<feColorMatrix type="matrix" values="0 0 0 0 0 0 0 0 0 0 0 0 0 0 0 0 0 0 0.25 0"/>
<feBlend mode="normal" in2="BackgroundImageFix" result="effect1_dropShadow_97_913"/>
<feBlend mode="normal" in="SourceGraphic" in2="effect1_dropShadow_97_913" result="shape"/>
</filter>
<filter id="filter1_d_97_913" x="0" y="0" width="166" height="56" filterUnits="userSpaceOnUse" color-interpolation-filters="sRGB">
<feFlood flood-opacity="0" result="BackgroundImageFix"/>
<feColorMatrix in="SourceAlpha" type="matrix" values="0 0 0 0 0 0 0 0 0 0 0 0 0 0 0 0 0 0 127 0" result="hardAlpha"/>
<feOffset dy="4"/>
<feGaussianBlur stdDeviation="2"/>
<feComposite in2="hardAlpha" operator="out"/>
<feColorMatrix type="matrix" values="0 0 0 0 0 0 0 0 0 0 0 0 0 0 0 0 0 0 0.25 0"/>
<feBlend mode="normal" in2="BackgroundImageFix" result="effect1_dropShadow_97_913"/>
<feBlend mode="normal" in="SourceGraphic" in2="effect1_dropShadow_97_913" result="shape"/>
</filter>
</defs>
</svg>
