<svg width="92" height="48" viewBox="0 0 92 48" fill="none" xmlns="http://www.w3.org/2000/svg">
<rect width="92" height="48" rx="16" fill="#001830"/>
<path d="M22.0114 30V18.3636H29.8523V20.392H24.4716V23.1648H29.4489V25.1932H24.4716V27.9716H29.875V30H22.0114ZM34.1832 24.9545V30H31.7628V21.2727H34.0696V22.8125H34.1719C34.3651 22.3049 34.6889 21.9034 35.1435 21.608C35.598 21.3087 36.1491 21.1591 36.7969 21.1591C37.4029 21.1591 37.9313 21.2917 38.3821 21.5568C38.8329 21.822 39.1832 22.2008 39.4332 22.6932C39.6832 23.1818 39.8082 23.7652 39.8082 24.4432V30H37.3878V24.875C37.3916 24.3409 37.2552 23.9242 36.9787 23.625C36.7022 23.322 36.3215 23.1705 35.8366 23.1705C35.5109 23.1705 35.223 23.2405 34.973 23.3807C34.7268 23.5208 34.5336 23.7254 34.3935 23.9943C34.2571 24.2595 34.187 24.5795 34.1832 24.9545ZM46.358 21.2727V23.0909H41.1023V21.2727H46.358ZM42.2955 19.1818H44.7159V27.3182C44.7159 27.5417 44.75 27.7159 44.8182 27.8409C44.8864 27.9621 44.9811 28.0473 45.1023 28.0966C45.2273 28.1458 45.3712 28.1705 45.5341 28.1705C45.6477 28.1705 45.7614 28.161 45.875 28.142C45.9886 28.1193 46.0758 28.1023 46.1364 28.0909L46.517 29.892C46.3958 29.9299 46.2254 29.9735 46.0057 30.0227C45.786 30.0758 45.5189 30.108 45.2045 30.1193C44.6212 30.142 44.1098 30.0644 43.6705 29.8864C43.2348 29.7083 42.8958 29.4318 42.6534 29.0568C42.411 28.6818 42.2917 28.2083 42.2955 27.6364V19.1818ZM47.9347 30V21.2727H50.2812V22.7955H50.3722C50.5313 22.2538 50.7983 21.8447 51.1733 21.5682C51.5483 21.2879 51.9801 21.1477 52.4688 21.1477C52.59 21.1477 52.7206 21.1553 52.8608 21.1705C53.0009 21.1856 53.1241 21.2064 53.2301 21.233V23.3807C53.1165 23.3466 52.9593 23.3163 52.7585 23.2898C52.5578 23.2633 52.3741 23.25 52.2074 23.25C51.8513 23.25 51.5331 23.3277 51.2528 23.483C50.9763 23.6345 50.7566 23.8466 50.5938 24.1193C50.4347 24.392 50.3551 24.7064 50.3551 25.0625V30H47.9347ZM56.7202 30.1648C56.1634 30.1648 55.6671 30.0682 55.2315 29.875C54.7959 29.678 54.4512 29.3883 54.1974 29.0057C53.9474 28.6193 53.8224 28.1383 53.8224 27.5625C53.8224 27.0777 53.9115 26.6705 54.0895 26.3409C54.2675 26.0114 54.5099 25.7462 54.8168 25.5455C55.1236 25.3447 55.4721 25.1932 55.8622 25.0909C56.2562 24.9886 56.669 24.9167 57.1009 24.875C57.6084 24.822 58.0175 24.7727 58.3281 24.7273C58.6387 24.678 58.8641 24.6061 59.0043 24.5114C59.1444 24.4167 59.2145 24.2765 59.2145 24.0909V24.0568C59.2145 23.697 59.1009 23.4186 58.8736 23.2216C58.6501 23.0246 58.3319 22.9261 57.919 22.9261C57.4834 22.9261 57.1368 23.0227 56.8793 23.2159C56.6217 23.4053 56.4512 23.6439 56.3679 23.9318L54.1293 23.75C54.2429 23.2197 54.4664 22.7614 54.7997 22.375C55.133 21.9848 55.563 21.6856 56.0895 21.4773C56.6198 21.2652 57.2334 21.1591 57.9304 21.1591C58.4152 21.1591 58.8793 21.2159 59.3224 21.3295C59.7694 21.4432 60.1652 21.6193 60.5099 21.858C60.8584 22.0966 61.133 22.4034 61.3338 22.7784C61.5346 23.1496 61.6349 23.5947 61.6349 24.1136V30H59.3395V28.7898H59.2713C59.1312 29.0625 58.9437 29.303 58.7088 29.5114C58.474 29.7159 58.1918 29.8769 57.8622 29.9943C57.5327 30.108 57.152 30.1648 56.7202 30.1648ZM57.4134 28.4943C57.7694 28.4943 58.0838 28.4242 58.3565 28.2841C58.6293 28.1402 58.8433 27.947 58.9986 27.7045C59.1539 27.4621 59.2315 27.1875 59.2315 26.8807V25.9545C59.1558 26.0038 59.0516 26.0492 58.919 26.0909C58.7902 26.1288 58.6444 26.1648 58.4815 26.1989C58.3187 26.2292 58.1558 26.2576 57.9929 26.2841C57.83 26.3068 57.6823 26.3277 57.5497 26.3466C57.2656 26.3883 57.0175 26.4545 56.8054 26.5455C56.5933 26.6364 56.4285 26.7595 56.3111 26.9148C56.1937 27.0663 56.1349 27.2557 56.1349 27.483C56.1349 27.8125 56.2543 28.0644 56.4929 28.2386C56.7353 28.4091 57.0421 28.4943 57.4134 28.4943ZM63.5128 30V21.2727H65.8594V22.7955H65.9503C66.1094 22.2538 66.3764 21.8447 66.7514 21.5682C67.1264 21.2879 67.5582 21.1477 68.0469 21.1477C68.1681 21.1477 68.2988 21.1553 68.4389 21.1705C68.5791 21.1856 68.7022 21.2064 68.8082 21.233V23.3807C68.6946 23.3466 68.5374 23.3163 68.3366 23.2898C68.1359 23.2633 67.9522 23.25 67.7855 23.25C67.4295 23.25 67.1113 23.3277 66.831 23.483C66.5545 23.6345 66.3348 23.8466 66.1719 24.1193C66.0128 24.392 65.9332 24.7064 65.9332 25.0625V30H63.5128Z" fill="#ECF3FB"/>
</svg>
