<svg width="89" height="14" viewBox="0 0 89 14" fill="none" xmlns="http://www.w3.org/2000/svg">
<path d="M11.2784 5.4375H8.78977C8.74432 5.11553 8.65152 4.82955 8.51136 4.57955C8.37121 4.32576 8.19129 4.10985 7.97159 3.93182C7.75189 3.75379 7.49811 3.61742 7.21023 3.52273C6.92614 3.42803 6.61742 3.38068 6.28409 3.38068C5.68182 3.38068 5.1572 3.5303 4.71023 3.82955C4.26326 4.125 3.91667 4.55682 3.67045 5.125C3.42424 5.68939 3.30114 6.375 3.30114 7.18182C3.30114 8.01136 3.42424 8.70833 3.67045 9.27273C3.92045 9.83712 4.26894 10.2633 4.71591 10.5511C5.16288 10.839 5.67992 10.983 6.26705 10.983C6.59659 10.983 6.90152 10.9394 7.18182 10.8523C7.46591 10.7652 7.7178 10.6383 7.9375 10.4716C8.1572 10.3011 8.33902 10.0947 8.48295 9.85227C8.63068 9.60985 8.73295 9.33333 8.78977 9.02273L11.2784 9.03409C11.214 9.56818 11.053 10.0833 10.7955 10.5795C10.5417 11.072 10.1989 11.5133 9.76705 11.9034C9.33902 12.2898 8.82765 12.5966 8.23295 12.8239C7.64205 13.0473 6.97348 13.1591 6.22727 13.1591C5.18939 13.1591 4.26136 12.9242 3.44318 12.4545C2.62879 11.9848 1.98485 11.3049 1.51136 10.4148C1.04167 9.52462 0.806818 8.44697 0.806818 7.18182C0.806818 5.91288 1.04545 4.83333 1.52273 3.94318C2 3.05303 2.64773 2.375 3.46591 1.90909C4.28409 1.43939 5.20455 1.20455 6.22727 1.20455C6.90152 1.20455 7.52652 1.29924 8.10227 1.48864C8.68182 1.67803 9.19508 1.95455 9.64205 2.31818C10.089 2.67803 10.4527 3.11932 10.733 3.64205C11.017 4.16477 11.1989 4.76326 11.2784 5.4375ZM12.9972 13V4.27273H15.3438V5.79545H15.4347C15.5938 5.25379 15.8608 4.8447 16.2358 4.56818C16.6108 4.28788 17.0426 4.14773 17.5312 4.14773C17.6525 4.14773 17.7831 4.1553 17.9233 4.17045C18.0634 4.18561 18.1866 4.20644 18.2926 4.23295V6.38068C18.179 6.34659 18.0218 6.31629 17.821 6.28977C17.6203 6.26326 17.4366 6.25 17.2699 6.25C16.9138 6.25 16.5956 6.32765 16.3153 6.48295C16.0388 6.63447 15.8191 6.84659 15.6562 7.11932C15.4972 7.39205 15.4176 7.70644 15.4176 8.0625V13H12.9972ZM19.544 13V4.27273H21.9645V13H19.544ZM20.7599 3.14773C20.4001 3.14773 20.0914 3.02841 19.8338 2.78977C19.58 2.54735 19.4531 2.25758 19.4531 1.92045C19.4531 1.58712 19.58 1.30114 19.8338 1.0625C20.0914 0.820075 20.4001 0.698863 20.7599 0.698863C21.1198 0.698863 21.4266 0.820075 21.6804 1.0625C21.938 1.30114 22.0668 1.58712 22.0668 1.92045C22.0668 2.25758 21.938 2.54735 21.6804 2.78977C21.4266 3.02841 21.1198 3.14773 20.7599 3.14773ZM26.392 13.1648C25.8352 13.1648 25.339 13.0682 24.9034 12.875C24.4678 12.678 24.1231 12.3883 23.8693 12.0057C23.6193 11.6193 23.4943 11.1383 23.4943 10.5625C23.4943 10.0777 23.5833 9.67045 23.7614 9.34091C23.9394 9.01136 24.1818 8.74621 24.4886 8.54545C24.7955 8.3447 25.1439 8.19318 25.5341 8.09091C25.928 7.98864 26.3409 7.91667 26.7727 7.875C27.2803 7.82197 27.6894 7.77273 28 7.72727C28.3106 7.67803 28.536 7.60606 28.6761 7.51136C28.8163 7.41667 28.8864 7.27652 28.8864 7.09091V7.05682C28.8864 6.69697 28.7727 6.41856 28.5455 6.22159C28.322 6.02462 28.0038 5.92614 27.5909 5.92614C27.1553 5.92614 26.8087 6.02273 26.5511 6.21591C26.2936 6.4053 26.1231 6.64394 26.0398 6.93182L23.8011 6.75C23.9148 6.2197 24.1383 5.76136 24.4716 5.375C24.8049 4.98485 25.2348 4.68561 25.7614 4.47727C26.2917 4.26515 26.9053 4.15909 27.6023 4.15909C28.0871 4.15909 28.5511 4.21591 28.9943 4.32955C29.4413 4.44318 29.8371 4.61932 30.1818 4.85795C30.5303 5.09659 30.8049 5.40341 31.0057 5.77841C31.2064 6.14962 31.3068 6.5947 31.3068 7.11364V13H29.0114V11.7898H28.9432C28.803 12.0625 28.6155 12.303 28.3807 12.5114C28.1458 12.7159 27.8636 12.8769 27.5341 12.9943C27.2045 13.108 26.8239 13.1648 26.392 13.1648ZM27.0852 11.4943C27.4413 11.4943 27.7557 11.4242 28.0284 11.2841C28.3011 11.1402 28.5152 10.947 28.6705 10.7045C28.8258 10.4621 28.9034 10.1875 28.9034 9.88068V8.95455C28.8277 9.00379 28.7235 9.04924 28.5909 9.09091C28.4621 9.12879 28.3163 9.16477 28.1534 9.19886C27.9905 9.22917 27.8277 9.25758 27.6648 9.28409C27.5019 9.30682 27.3542 9.32765 27.2216 9.34659C26.9375 9.38826 26.6894 9.45455 26.4773 9.54545C26.2652 9.63636 26.1004 9.75947 25.983 9.91477C25.8655 10.0663 25.8068 10.2557 25.8068 10.483C25.8068 10.8125 25.9261 11.0644 26.1648 11.2386C26.4072 11.4091 26.714 11.4943 27.0852 11.4943ZM33.1847 13V4.27273H35.5312V5.79545H35.6222C35.7813 5.25379 36.0483 4.8447 36.4233 4.56818C36.7983 4.28788 37.2301 4.14773 37.7188 4.14773C37.84 4.14773 37.9706 4.1553 38.1108 4.17045C38.2509 4.18561 38.3741 4.20644 38.4801 4.23295V6.38068C38.3665 6.34659 38.2093 6.31629 38.0085 6.28977C37.8078 6.26326 37.6241 6.25 37.4574 6.25C37.1013 6.25 36.7831 6.32765 36.5028 6.48295C36.2263 6.63447 36.0066 6.84659 35.8438 7.11932C35.6847 7.39205 35.6051 7.70644 35.6051 8.0625V13H33.1847ZM53.7472 5.4375H51.2585C51.2131 5.11553 51.1203 4.82955 50.9801 4.57955C50.84 4.32576 50.66 4.10985 50.4403 3.93182C50.2206 3.75379 49.9669 3.61742 49.679 3.52273C49.3949 3.42803 49.0862 3.38068 48.7528 3.38068C48.1506 3.38068 47.6259 3.5303 47.179 3.82955C46.732 4.125 46.3854 4.55682 46.1392 5.125C45.893 5.68939 45.7699 6.375 45.7699 7.18182C45.7699 8.01136 45.893 8.70833 46.1392 9.27273C46.3892 9.83712 46.7377 10.2633 47.1847 10.5511C47.6316 10.839 48.1487 10.983 48.7358 10.983C49.0653 10.983 49.3703 10.9394 49.6506 10.8523C49.9347 10.7652 50.1866 10.6383 50.4062 10.4716C50.6259 10.3011 50.8078 10.0947 50.9517 9.85227C51.0994 9.60985 51.2017 9.33333 51.2585 9.02273L53.7472 9.03409C53.6828 9.56818 53.5218 10.0833 53.2642 10.5795C53.0104 11.072 52.6676 11.5133 52.2358 11.9034C51.8078 12.2898 51.2964 12.5966 50.7017 12.8239C50.1108 13.0473 49.4422 13.1591 48.696 13.1591C47.6581 13.1591 46.7301 12.9242 45.9119 12.4545C45.0975 11.9848 44.4536 11.3049 43.9801 10.4148C43.5104 9.52462 43.2756 8.44697 43.2756 7.18182C43.2756 5.91288 43.5142 4.83333 43.9915 3.94318C44.4688 3.05303 45.1165 2.375 45.9347 1.90909C46.7528 1.43939 47.6733 1.20455 48.696 1.20455C49.3703 1.20455 49.9953 1.29924 50.571 1.48864C51.1506 1.67803 51.6638 1.95455 52.1108 2.31818C52.5578 2.67803 52.9214 3.11932 53.2017 3.64205C53.4858 4.16477 53.6676 4.76326 53.7472 5.4375ZM59.4091 13.1705C58.5265 13.1705 57.7633 12.983 57.1193 12.608C56.4792 12.2292 55.9848 11.7027 55.6364 11.0284C55.2879 10.3504 55.1136 9.56439 55.1136 8.67045C55.1136 7.76894 55.2879 6.98106 55.6364 6.30682C55.9848 5.62879 56.4792 5.10227 57.1193 4.72727C57.7633 4.34848 58.5265 4.15909 59.4091 4.15909C60.2917 4.15909 61.053 4.34848 61.6932 4.72727C62.3371 5.10227 62.8333 5.62879 63.1818 6.30682C63.5303 6.98106 63.7045 7.76894 63.7045 8.67045C63.7045 9.56439 63.5303 10.3504 63.1818 11.0284C62.8333 11.7027 62.3371 12.2292 61.6932 12.608C61.053 12.983 60.2917 13.1705 59.4091 13.1705ZM59.4205 11.2955C59.822 11.2955 60.1572 11.1818 60.4261 10.9545C60.6951 10.7235 60.8977 10.4091 61.0341 10.0114C61.1742 9.61364 61.2443 9.16098 61.2443 8.65341C61.2443 8.14583 61.1742 7.69318 61.0341 7.29545C60.8977 6.89773 60.6951 6.58333 60.4261 6.35227C60.1572 6.12121 59.822 6.00568 59.4205 6.00568C59.0152 6.00568 58.6742 6.12121 58.3977 6.35227C58.125 6.58333 57.9186 6.89773 57.7784 7.29545C57.642 7.69318 57.5739 8.14583 57.5739 8.65341C57.5739 9.16098 57.642 9.61364 57.7784 10.0114C57.9186 10.4091 58.125 10.7235 58.3977 10.9545C58.6742 11.1818 59.0152 11.2955 59.4205 11.2955ZM67.6989 7.95455V13H65.2784V4.27273H67.5852V5.8125H67.6875C67.8807 5.30492 68.2045 4.90341 68.6591 4.60795C69.1136 4.30871 69.6648 4.15909 70.3125 4.15909C70.9186 4.15909 71.447 4.29167 71.8977 4.55682C72.3485 4.82197 72.6989 5.20076 72.9489 5.69318C73.1989 6.18182 73.3239 6.76515 73.3239 7.44318V13H70.9034V7.875C70.9072 7.34091 70.7708 6.92424 70.4943 6.625C70.2178 6.32197 69.8371 6.17045 69.3523 6.17045C69.0265 6.17045 68.7386 6.24053 68.4886 6.38068C68.2424 6.52083 68.0492 6.72538 67.9091 6.99432C67.7727 7.25947 67.7027 7.57955 67.6989 7.95455ZM79.8736 4.27273V6.09091H74.6179V4.27273H79.8736ZM75.8111 2.18182H78.2315V10.3182C78.2315 10.5417 78.2656 10.7159 78.3338 10.8409C78.402 10.9621 78.4967 11.0473 78.6179 11.0966C78.7429 11.1458 78.8868 11.1705 79.0497 11.1705C79.1634 11.1705 79.277 11.161 79.3906 11.142C79.5043 11.1193 79.5914 11.1023 79.652 11.0909L80.0327 12.892C79.9115 12.9299 79.741 12.9735 79.5213 13.0227C79.3016 13.0758 79.0346 13.108 78.7202 13.1193C78.1368 13.142 77.6255 13.0644 77.1861 12.8864C76.7505 12.7083 76.4115 12.4318 76.169 12.0568C75.9266 11.6818 75.8073 11.2083 75.8111 10.6364V2.18182ZM83.9389 13.1648C83.3821 13.1648 82.8859 13.0682 82.4503 12.875C82.0147 12.678 81.67 12.3883 81.4162 12.0057C81.1662 11.6193 81.0412 11.1383 81.0412 10.5625C81.0412 10.0777 81.1302 9.67045 81.3082 9.34091C81.4863 9.01136 81.7287 8.74621 82.0355 8.54545C82.3423 8.3447 82.6908 8.19318 83.081 8.09091C83.4749 7.98864 83.8878 7.91667 84.3196 7.875C84.8272 7.82197 85.2363 7.77273 85.5469 7.72727C85.8575 7.67803 86.0829 7.60606 86.223 7.51136C86.3632 7.41667 86.4332 7.27652 86.4332 7.09091V7.05682C86.4332 6.69697 86.3196 6.41856 86.0923 6.22159C85.8688 6.02462 85.5507 5.92614 85.1378 5.92614C84.7022 5.92614 84.3556 6.02273 84.098 6.21591C83.8404 6.4053 83.67 6.64394 83.5866 6.93182L81.348 6.75C81.4616 6.2197 81.6851 5.76136 82.0185 5.375C82.3518 4.98485 82.7817 4.68561 83.3082 4.47727C83.8385 4.26515 84.4522 4.15909 85.1491 4.15909C85.634 4.15909 86.098 4.21591 86.5412 4.32955C86.9882 4.44318 87.384 4.61932 87.7287 4.85795C88.0772 5.09659 88.3518 5.40341 88.5526 5.77841C88.7533 6.14962 88.8537 6.5947 88.8537 7.11364V13H86.5582V11.7898H86.4901C86.3499 12.0625 86.1624 12.303 85.9276 12.5114C85.6927 12.7159 85.4105 12.8769 85.081 12.9943C84.7514 13.108 84.3707 13.1648 83.9389 13.1648ZM84.6321 11.4943C84.9882 11.4943 85.3026 11.4242 85.5753 11.2841C85.848 11.1402 86.062 10.947 86.2173 10.7045C86.3726 10.4621 86.4503 10.1875 86.4503 9.88068V8.95455C86.3745 9.00379 86.2704 9.04924 86.1378 9.09091C86.009 9.12879 85.8632 9.16477 85.7003 9.19886C85.5374 9.22917 85.3745 9.25758 85.2116 9.28409C85.0488 9.30682 84.901 9.32765 84.7685 9.34659C84.4844 9.38826 84.2363 9.45455 84.0241 9.54545C83.812 9.63636 83.6473 9.75947 83.5298 9.91477C83.4124 10.0663 83.3537 10.2557 83.3537 10.483C83.3537 10.8125 83.473 11.0644 83.7116 11.2386C83.9541 11.4091 84.2609 11.4943 84.6321 11.4943Z" fill="#001830"/>
</svg>
