<svg width="26" height="27" viewBox="0 0 26 27" fill="none" xmlns="http://www.w3.org/2000/svg">
<path d="M3.28223 7.10059H5.41043H22.4361" stroke="#ECF3FB" stroke-width="2" stroke-linecap="round" stroke-linejoin="round"/>
<path d="M20.3078 7.10096V22.1106C20.3078 22.6793 20.0836 23.2247 19.6845 23.6268C19.2854 24.0289 18.7441 24.2548 18.1796 24.2548H7.53861C6.97417 24.2548 6.43285 24.0289 6.03374 23.6268C5.63462 23.2247 5.4104 22.6793 5.4104 22.1106V7.10096M8.60271 7.10096V4.95673C8.60271 4.38805 8.82693 3.84265 9.22604 3.44053C9.62516 3.03841 10.1665 2.8125 10.7309 2.8125H14.9873C15.5518 2.8125 16.0931 3.03841 16.4922 3.44053C16.8913 3.84265 17.1155 4.38805 17.1155 4.95673V7.10096" stroke="#ECF3FB" stroke-width="2" stroke-linecap="round" stroke-linejoin="round"/>
<path d="M10.731 12.4609V18.8936" stroke="#ECF3FB" stroke-width="2" stroke-linecap="round" stroke-linejoin="round"/>
<path d="M14.9873 12.4609V18.8936" stroke="#ECF3FB" stroke-width="2" stroke-linecap="round" stroke-linejoin="round"/>
</svg>
