<svg width="20" height="20" viewBox="0 0 20 20" fill="none" xmlns="http://www.w3.org/2000/svg">
<path d="M12.049 3.57994L15.4487 7.0091M13.7489 1.86537C13.9653 1.60735 14.2331 1.39734 14.535 1.24871C14.837 1.10007 15.1666 1.01608 15.5028 1.00209C15.839 0.9881 16.1744 1.04441 16.4876 1.16744C16.8009 1.29047 17.0851 1.47751 17.3222 1.71665C17.5593 1.95578 17.744 2.24177 17.8646 2.55638C17.9853 2.87099 18.0391 3.20731 18.0228 3.54392C18.0064 3.88053 17.9203 4.21004 17.7698 4.51145C17.6192 4.81285 17.4077 5.07954 17.1485 5.29452L5.67458 16.8679L1 18.1538L2.27489 13.4388L13.7489 1.86537Z" stroke="#ECF3FB" stroke-width="2" stroke-linecap="round" stroke-linejoin="round"/>
</svg>
